<svg height="512pt" viewBox="0 0 512 512" width="512pt" xmlns="http://www.w3.org/2000/svg"><path d="m512 256c0 141.386719-114.613281 256-256 256s-256-114.613281-256-256 114.613281-256 256-256 256 114.613281 256 256zm0 0" fill="#bdc3c7"/><path d="m221.867188 102.398438c0 23.566406-19.101563 42.667968-42.667969 42.667968-7.128907.019532-14.144531-1.773437-20.394531-5.203125-16-8.691406-24.726563-26.578125-21.71875-44.539062 3.003906-17.960938 17.078124-32.035157 35.039062-35.039063 17.957031-3.007812 35.847656 5.71875 44.535156 21.71875 3.433594 6.25 5.226563 13.265625 5.207032 20.394532zm0 0" fill="#95a5a5"/><path d="m221.867188 102.398438c0 23.566406-19.101563 42.667968-42.667969 42.667968-7.128907.019532-14.144531-1.773437-20.394531-5.203125-3.433594-6.25-5.222657-13.265625-5.203126-20.398437 0-23.5625 19.101563-42.664063 42.664063-42.664063 7.128906-.019531 14.148437 1.769531 20.394531 5.203125 3.433594 6.25 5.226563 13.265625 5.207032 20.394532zm0 0" fill="#7f8c8d"/><path d="m187.734375 281.601562c0 37.699219-30.566406 68.265626-68.269531 68.265626-37.644532-.132813-68.132813-30.617188-68.265625-68.265626-.035157-29.84375 19.335937-56.238281 47.8125-65.160156 28.472656-8.917968 59.441406 1.714844 76.433593 26.246094 8.03125 11.382812 12.324219 24.980469 12.289063 38.914062zm0 0" fill="#95a5a5"/><path d="m187.734375 281.601562c0 37.699219-30.566406 68.265626-68.269531 68.265626-13.929688.035156-27.527344-4.257813-38.910156-12.289063-8.03125-11.382813-12.324219-24.980469-12.289063-38.910156 0-37.703125 30.566406-68.269531 68.269531-68.269531 13.929688-.035157 27.527344 4.257812 38.910156 12.289062 8.03125 11.382812 12.324219 24.980469 12.289063 38.914062zm0 0" fill="#7f8c8d"/><path d="m477.695312 248.148438s-99.925781 34.304687-64.171874 112.386718l-24.402344.339844 15.1875 43.433594-43.433594-15.1875-.339844 24.402344c-78.082031-35.753907-112.386718 64.171874-112.386718 64.171874-35.328126-33.195312-72.53125-15.359374-95.742188 3.074219-8.445312 6.625-16.140625 14.148438-22.957031 22.441407l-.253907.253906c-30.976562-48.554688-120.40625-10.835938-120.40625-10.835938-1.792968-46.671875 5.152344-93.265625 20.480469-137.386718 8.6875-24.117188 22.617188-46.003907 40.789063-64.085938 17.878906-17.050781 40.421875-28.398438 64.769531-32.597656 5.507813-.992188 11.160156.722656 15.1875 4.609375 8.871094 8.691406 18.304687 16.789062 28.246094 24.234375 16.203125 12.386718 34.222656 22.203125 53.417969 29.097656 5.023437 1.734375 10.152343 3.128906 15.359374 4.183594l73.644532-73.644532c-8.789063-43.859374-43.351563-82.601562-57.429688-96.9375-3.832031-3.785156-5.613281-9.183593-4.777344-14.507812 24.746094-139.347656 234.152344-126.804688 234.152344-126.804688s-37.71875 89.429688 10.835938 120.40625c0 0-79.273438 61.953126-25.769532 118.953126zm0 0" fill="#35495e"/><path d="m318.714844 244.914062c-17.703125-17.699218-48.574219-15.53125-68.949219 4.847657-20.378906 20.378906-22.546875 51.246093-4.847656 68.949219 17.703125 17.703124 48.574219 15.53125 68.953125-4.84375 20.375-20.378907 22.546875-51.25 4.84375-68.953126zm0 0" fill="#285680"/><g fill="#2c2f38"><path d="m234.667969 284.160156c-2.265625.003906-4.4375-.902344-6.035157-2.507812l-29.40625-29.398438c-3.332031-3.332031-3.335937-8.734375-.003906-12.070312 3.332032-3.335938 8.738282-3.335938 12.070313-.003906l29.347656 29.414062c2.429687 2.433594 3.164063 6.089844 1.859375 9.269531-1.304688 3.183594-4.394531 5.273438-7.832031 5.296875zm0 0"/><path d="m275.625 243.199219c-2.261719 0-4.429688-.898438-6.03125-2.5l-29.414062-29.414063c-2.15625-2.15625-2.996094-5.300781-2.207032-8.246094.789063-2.945312 3.09375-5.242187 6.039063-6.03125 2.945312-.789062 6.085937.054688 8.242187 2.210938l29.40625 29.414062c2.4375 2.441407 3.167969 6.109376 1.847656 9.300782-1.320312 3.1875-4.429687 5.265625-7.882812 5.265625zm0 0"/><path d="m271.300781 295.484375c-1.621093 1.585937-3.78125 2.5-6.050781 2.558594-2.878906.054687-5.589844-1.367188-7.179688-3.769531-1.59375-2.402344-1.847656-5.449219-.679687-8.082032.871094-2.070312 2.515625-3.71875 4.582031-4.589844 1.042969-.421874 2.148438-.664062 3.269532-.71875 3.480468-.03125 6.628906 2.054688 7.960937 5.273438 1.332031 3.214844.574219 6.917969-1.910156 9.351562zm0 0"/><path d="m295.484375 271.300781c-1.617187 1.585938-3.777344 2.5-6.042969 2.558594-2.882812.042969-5.589844-1.386719-7.175781-3.792969-1.589844-2.40625-1.839844-5.460937-.664063-8.09375.867188-2.078125 2.519532-3.726562 4.597657-4.589844 1.039062-.429687 2.144531-.671874 3.269531-.726562 3.480469-.03125 6.632812 2.058594 7.960938 5.277344 1.332031 3.21875.570312 6.921875-1.921876 9.359375zm0 0"/></g><path d="m477.695312 248.148438s-45.652343-30.804688-85.757812-34.816407c-7.277344-.628906-13.945312-4.3125-18.351562-10.136719-4.40625-5.820312-6.140626-13.238281-4.773438-20.410156l2.8125-14.167968c1.652344-8.023438 7-14.792969 14.421875-18.261719 36.394531-17.59375 76.929687-24.828125 117.164063-20.90625-4.777344 3.757812-77.226563 63.574219-25.515626 118.699219zm0 0" fill="#2c3e50"/><path d="m248.148438 477.695312c-35.328126-33.195312-72.53125-15.359374-95.742188 3.074219-8.445312 6.625-16.140625 14.148438-22.957031 22.441407-3.921875-40.234376 3.3125-80.769532 20.90625-117.164063 3.46875-7.421875 10.238281-12.769531 18.261719-14.421875l14.167968-2.8125c7.171875-1.355469 14.578125.386719 20.398438 4.789062 5.820312 4.40625 9.503906 11.066407 10.148437 18.335938 4.097657 40.105469 34.816407 85.757812 34.816407 85.757812zm0 0" fill="#2c3e50"/></svg>